<svg width="66" height="66" viewBox="0 0 66 66" fill="none" xmlns="http://www.w3.org/2000/svg">
<path d="M46.75 5.5H19.25C11.6561 5.5 5.5 11.6561 5.5 19.25V46.75C5.5 54.3439 11.6561 60.5 19.25 60.5H46.75C54.3439 60.5 60.5 54.3439 60.5 46.75V19.25C60.5 11.6561 54.3439 5.5 46.75 5.5Z" stroke="#000" stroke-width="2" stroke-linecap="round" stroke-linejoin="round"/>
<path d="M43.9999 31.2676C44.3393 33.5563 43.9484 35.8937 42.8828 37.9474C41.8171 40.0011 40.1311 41.6665 38.0644 42.7067C35.9977 43.7469 33.6557 44.109 31.3713 43.7414C29.087 43.3738 26.9768 42.2953 25.3407 40.6593C23.7047 39.0233 22.6262 36.913 22.2586 34.6287C21.891 32.3444 22.2531 30.0023 23.2933 27.9356C24.3335 25.8689 25.9989 24.1829 28.0526 23.1173C30.1063 22.0516 32.4438 21.6607 34.7324 22.0001C37.067 22.3463 39.2283 23.4341 40.8971 25.1029C42.5659 26.7718 43.6538 28.9331 43.9999 31.2676Z" stroke="#000" stroke-width="2" stroke-linecap="round" stroke-linejoin="round"/>
<path d="M48.125 17.875H48.1525" stroke="#000" stroke-width="2" stroke-linecap="round" stroke-linejoin="round"/>
</svg>
