<svg width="79" height="79" viewBox="0 0 79 79" fill="none" xmlns="http://www.w3.org/2000/svg">
<path d="M69.125 32.9167C69.125 55.9584 39.5 75.7084 39.5 75.7084C39.5 75.7084 9.875 55.9584 9.875 32.9167C9.875 25.0597 12.9962 17.5245 18.552 11.9687C24.1077 6.41294 31.643 3.29175 39.5 3.29175C47.357 3.29175 54.8923 6.41294 60.448 11.9687C66.0038 17.5245 69.125 25.0597 69.125 32.9167Z" stroke="#FF5B2E" stroke-width="2" stroke-linecap="round" stroke-linejoin="round"/>
<path d="M39.5 42.7917C44.9538 42.7917 49.375 38.3706 49.375 32.9167C49.375 27.4629 44.9538 23.0417 39.5 23.0417C34.0462 23.0417 29.625 27.4629 29.625 32.9167C29.625 38.3706 34.0462 42.7917 39.5 42.7917Z" stroke="#FF5B2E" stroke-width="2" stroke-linecap="round" stroke-linejoin="round"/>
</svg>
