<svg width="63" height="63" viewBox="0 0 63 63" fill="none" xmlns="http://www.w3.org/2000/svg">
<path d="M60.375 7.87503C57.8613 9.64816 55.078 11.0043 52.1325 11.8913C50.5516 10.0735 48.4505 8.7851 46.1135 8.20034C43.7764 7.61557 41.3162 7.76267 39.0655 8.62172C36.8147 9.48077 34.8822 11.0103 33.5291 13.0035C32.176 14.9967 31.4677 17.3574 31.5 19.7663V22.3913C26.8869 22.5109 22.3158 21.4878 18.1939 19.4131C14.072 17.3384 10.5271 14.2764 7.875 10.5C7.875 10.5 -2.625 34.125 21 44.625C15.5939 48.2947 9.15379 50.1347 2.625 49.875C26.25 63 55.125 49.875 55.125 19.6875C55.1226 18.9563 55.0523 18.227 54.915 17.5088C57.5941 14.8667 59.4847 11.5309 60.375 7.87503V7.87503Z" stroke="#000" stroke-width="2" stroke-linecap="round" stroke-linejoin="round"/>
</svg>
